# xmcd
#
# Track frame offsets: 
#        150
#        19612
#        40447
#        66302
#        87830
#        108025
#        128980
#        147575
#        169942
#        193170
#
# Disc length: 2960 seconds
#
# Revision: 2
# Processed by: cddbd v1.5.2PL0 Copyright (c) Steve Scherf et al.
# Submitted via: ExactAudioCopy v1.3
#
DISCID=8e0b8e0a
DTITLE=石川優子 - スチューピッド・キューピッド
DYEAR=1988
DGENRE=JPop
TTITLE0=イノセント・ダンディー
TTITLE1=アペリティフ
TTITLE2=街角のマーメイド
TTITLE3=妖精たちの森
TTITLE4=時を置いて
TTITLE5=エルドラド・サマー
TTITLE6=ドリーミー・ドリーマー
TTITLE7=思い出が騒ぎだす
TTITLE8=あの歌をあなたに
TTITLE9=MAY YOU BE HAPPY
EXTD=
EXTT0=
EXTT1=
EXTT2=
EXTT3=
EXTT4=
EXTT5=
EXTT6=
EXTT7=
EXTT8=
EXTT9=
PLAYORDER=
